<mxfile host="app.diagrams.net" agent="Mozilla/5.0 (Windows NT 10.0; Win64; x64) AppleWebKit/537.36 (KHTML, like Gecko) Chrome/131.0.0.0 Safari/537.36" version="26.0.2">
  <diagram name="Page-1" id="XTs4QBWda68m_z4OQdF8">
    <mxGraphModel dx="1158" dy="1160" grid="1" gridSize="10" guides="1" tooltips="1" connect="1" arrows="1" fold="1" page="1" pageScale="1" pageWidth="3300" pageHeight="4681" math="0" shadow="0">
      <root>
        <mxCell id="0" />
        <mxCell id="1" parent="0" />
        <mxCell id="7Stq9z6RVKlVhhMGPgVX-14" value="CONTACT" style="whiteSpace=wrap;html=1;align=center;" vertex="1" parent="1">
          <mxGeometry x="1910" y="810" width="100" height="40" as="geometry" />
        </mxCell>
        <mxCell id="7Stq9z6RVKlVhhMGPgVX-15" value="" style="endArrow=none;html=1;rounded=0;" edge="1" parent="1">
          <mxGeometry relative="1" as="geometry">
            <mxPoint x="1860" y="770" as="sourcePoint" />
            <mxPoint x="1910" y="810" as="targetPoint" />
          </mxGeometry>
        </mxCell>
        <mxCell id="7Stq9z6RVKlVhhMGPgVX-16" value="contactID" style="ellipse;whiteSpace=wrap;html=1;align=center;" vertex="1" parent="1">
          <mxGeometry x="1760" y="750" width="100" height="40" as="geometry" />
        </mxCell>
        <mxCell id="7Stq9z6RVKlVhhMGPgVX-17" value="" style="line;strokeWidth=1;rotatable=0;dashed=0;labelPosition=right;align=left;verticalAlign=middle;spacingTop=0;spacingLeft=6;points=[];portConstraint=eastwest;" vertex="1" parent="1">
          <mxGeometry x="1780" y="770" width="60" height="10" as="geometry" />
        </mxCell>
        <mxCell id="7Stq9z6RVKlVhhMGPgVX-18" value="name" style="ellipse;whiteSpace=wrap;html=1;align=center;" vertex="1" parent="1">
          <mxGeometry x="1910" y="710" width="100" height="40" as="geometry" />
        </mxCell>
        <mxCell id="7Stq9z6RVKlVhhMGPgVX-19" value="" style="line;strokeWidth=1;rotatable=0;dashed=0;labelPosition=right;align=left;verticalAlign=middle;spacingTop=0;spacingLeft=6;points=[];portConstraint=eastwest;direction=south;" vertex="1" parent="1">
          <mxGeometry x="1950" y="750" width="15" height="60" as="geometry" />
        </mxCell>
        <mxCell id="7Stq9z6RVKlVhhMGPgVX-21" value="" style="endArrow=none;html=1;rounded=0;entryX=0.246;entryY=1.006;entryDx=0;entryDy=0;entryPerimeter=0;" edge="1" parent="1" target="7Stq9z6RVKlVhhMGPgVX-20">
          <mxGeometry relative="1" as="geometry">
            <mxPoint x="2010" y="808.89" as="sourcePoint" />
            <mxPoint x="2090" y="808.89" as="targetPoint" />
          </mxGeometry>
        </mxCell>
        <mxCell id="7Stq9z6RVKlVhhMGPgVX-20" value="email" style="ellipse;whiteSpace=wrap;html=1;align=center;" vertex="1" parent="1">
          <mxGeometry x="2030" y="730" width="100" height="40" as="geometry" />
        </mxCell>
        <mxCell id="7Stq9z6RVKlVhhMGPgVX-22" value="message" style="ellipse;whiteSpace=wrap;html=1;align=center;" vertex="1" parent="1">
          <mxGeometry x="1810" y="700" width="100" height="40" as="geometry" />
        </mxCell>
        <mxCell id="7Stq9z6RVKlVhhMGPgVX-25" value="contactdate" style="ellipse;whiteSpace=wrap;html=1;align=center;" vertex="1" parent="1">
          <mxGeometry x="2080" y="780" width="100" height="40" as="geometry" />
        </mxCell>
        <mxCell id="7Stq9z6RVKlVhhMGPgVX-42" value="MEMBERSHIPTYPE" style="whiteSpace=wrap;html=1;align=center;" vertex="1" parent="1">
          <mxGeometry x="1457.5" y="660" width="150" height="40" as="geometry" />
        </mxCell>
        <mxCell id="7Stq9z6RVKlVhhMGPgVX-43" value="" style="endArrow=none;html=1;rounded=0;exitX=1;exitY=1;exitDx=0;exitDy=0;entryX=0.25;entryY=0;entryDx=0;entryDy=0;" edge="1" parent="1" source="7Stq9z6RVKlVhhMGPgVX-44" target="7Stq9z6RVKlVhhMGPgVX-42">
          <mxGeometry relative="1" as="geometry">
            <mxPoint x="1467.5" y="645.13" as="sourcePoint" />
            <mxPoint x="1517.5" y="644.63" as="targetPoint" />
          </mxGeometry>
        </mxCell>
        <mxCell id="7Stq9z6RVKlVhhMGPgVX-44" value="membershipTypeID" style="ellipse;whiteSpace=wrap;html=1;align=center;" vertex="1" parent="1">
          <mxGeometry x="1347.5" y="565" width="140" height="50" as="geometry" />
        </mxCell>
        <mxCell id="7Stq9z6RVKlVhhMGPgVX-45" value="" style="line;strokeWidth=1;rotatable=0;dashed=0;labelPosition=right;align=left;verticalAlign=middle;spacingTop=0;spacingLeft=6;points=[];portConstraint=eastwest;" vertex="1" parent="1">
          <mxGeometry x="1367.5" y="590" width="100" height="10" as="geometry" />
        </mxCell>
        <mxCell id="7Stq9z6RVKlVhhMGPgVX-46" value="membershipName" style="ellipse;whiteSpace=wrap;html=1;align=center;" vertex="1" parent="1">
          <mxGeometry x="1487.5" y="560" width="130" height="40" as="geometry" />
        </mxCell>
        <mxCell id="7Stq9z6RVKlVhhMGPgVX-47" value="" style="line;strokeWidth=1;rotatable=0;dashed=0;labelPosition=right;align=left;verticalAlign=middle;spacingTop=0;spacingLeft=6;points=[];portConstraint=eastwest;direction=south;" vertex="1" parent="1">
          <mxGeometry x="1542.5" y="600" width="15" height="60" as="geometry" />
        </mxCell>
        <mxCell id="7Stq9z6RVKlVhhMGPgVX-48" value="" style="endArrow=none;html=1;rounded=0;exitX=1;exitY=0;exitDx=0;exitDy=0;" edge="1" parent="1" source="7Stq9z6RVKlVhhMGPgVX-42" target="7Stq9z6RVKlVhhMGPgVX-49">
          <mxGeometry relative="1" as="geometry">
            <mxPoint x="1602.5" y="650" as="sourcePoint" />
            <mxPoint x="1682.5" y="650" as="targetPoint" />
          </mxGeometry>
        </mxCell>
        <mxCell id="7Stq9z6RVKlVhhMGPgVX-49" value="description" style="ellipse;whiteSpace=wrap;html=1;align=center;" vertex="1" parent="1">
          <mxGeometry x="1617.5" y="580" width="100" height="40" as="geometry" />
        </mxCell>
        <mxCell id="7Stq9z6RVKlVhhMGPgVX-50" value="price" style="ellipse;whiteSpace=wrap;html=1;align=center;" vertex="1" parent="1">
          <mxGeometry x="1642.5" y="620" width="107.5" height="40" as="geometry" />
        </mxCell>
        <mxCell id="7Stq9z6RVKlVhhMGPgVX-54" value="" style="endArrow=none;html=1;rounded=0;entryX=0.037;entryY=0.693;entryDx=0;entryDy=0;entryPerimeter=0;exitX=1;exitY=0.5;exitDx=0;exitDy=0;" edge="1" parent="1" source="7Stq9z6RVKlVhhMGPgVX-14" target="7Stq9z6RVKlVhhMGPgVX-25">
          <mxGeometry relative="1" as="geometry">
            <mxPoint x="2000" y="860" as="sourcePoint" />
            <mxPoint x="2090" y="900" as="targetPoint" />
            <Array as="points" />
          </mxGeometry>
        </mxCell>
        <mxCell id="7Stq9z6RVKlVhhMGPgVX-55" value="" style="endArrow=none;html=1;rounded=0;exitX=0.769;exitY=1;exitDx=0;exitDy=0;exitPerimeter=0;" edge="1" parent="1" source="7Stq9z6RVKlVhhMGPgVX-22">
          <mxGeometry relative="1" as="geometry">
            <mxPoint x="1920" y="780" as="sourcePoint" />
            <mxPoint x="1950" y="810" as="targetPoint" />
            <Array as="points" />
          </mxGeometry>
        </mxCell>
        <mxCell id="7Stq9z6RVKlVhhMGPgVX-56" value="" style="endArrow=none;html=1;rounded=0;entryX=0;entryY=1;entryDx=0;entryDy=0;exitX=1.029;exitY=0.382;exitDx=0;exitDy=0;exitPerimeter=0;" edge="1" parent="1" source="7Stq9z6RVKlVhhMGPgVX-42" target="7Stq9z6RVKlVhhMGPgVX-50">
          <mxGeometry relative="1" as="geometry">
            <mxPoint x="1592.5" y="700" as="sourcePoint" />
            <mxPoint x="1752.5" y="700" as="targetPoint" />
          </mxGeometry>
        </mxCell>
        <mxCell id="7Stq9z6RVKlVhhMGPgVX-58" value="userId" style="ellipse;whiteSpace=wrap;html=1;align=center;fontStyle=4;" vertex="1" parent="1">
          <mxGeometry x="860" y="630" width="100" height="40" as="geometry" />
        </mxCell>
        <mxCell id="7Stq9z6RVKlVhhMGPgVX-59" value="username&amp;nbsp;" style="ellipse;whiteSpace=wrap;html=1;align=center;" vertex="1" parent="1">
          <mxGeometry x="910" y="530" width="100" height="40" as="geometry" />
        </mxCell>
        <mxCell id="7Stq9z6RVKlVhhMGPgVX-60" value="email" style="ellipse;whiteSpace=wrap;html=1;align=center;" vertex="1" parent="1">
          <mxGeometry x="870" y="580" width="100" height="40" as="geometry" />
        </mxCell>
        <mxCell id="7Stq9z6RVKlVhhMGPgVX-61" value="password" style="ellipse;whiteSpace=wrap;html=1;align=center;" vertex="1" parent="1">
          <mxGeometry x="990" y="480" width="100" height="40" as="geometry" />
        </mxCell>
        <mxCell id="7Stq9z6RVKlVhhMGPgVX-62" value="firstName" style="ellipse;whiteSpace=wrap;html=1;align=center;" vertex="1" parent="1">
          <mxGeometry x="1065" y="520" width="100" height="40" as="geometry" />
        </mxCell>
        <mxCell id="7Stq9z6RVKlVhhMGPgVX-63" value="lastName" style="ellipse;whiteSpace=wrap;html=1;align=center;" vertex="1" parent="1">
          <mxGeometry x="1110" y="570" width="100" height="40" as="geometry" />
        </mxCell>
        <mxCell id="7Stq9z6RVKlVhhMGPgVX-64" value="&amp;nbsp; &amp;nbsp;registrationDate" style="ellipse;whiteSpace=wrap;html=1;align=center;" vertex="1" parent="1">
          <mxGeometry x="1150" y="610" width="100" height="40" as="geometry" />
        </mxCell>
        <mxCell id="7Stq9z6RVKlVhhMGPgVX-65" value="" style="endArrow=none;html=1;rounded=0;entryX=1;entryY=1;entryDx=0;entryDy=0;exitX=0.5;exitY=0;exitDx=0;exitDy=0;" edge="1" parent="1" source="7Stq9z6RVKlVhhMGPgVX-57" target="7Stq9z6RVKlVhhMGPgVX-59">
          <mxGeometry relative="1" as="geometry">
            <mxPoint x="1100" y="630" as="sourcePoint" />
            <mxPoint x="960" y="630" as="targetPoint" />
            <Array as="points">
              <mxPoint x="1030" y="630" />
            </Array>
          </mxGeometry>
        </mxCell>
        <mxCell id="7Stq9z6RVKlVhhMGPgVX-66" value="" style="endArrow=none;html=1;rounded=0;entryX=0.5;entryY=1;entryDx=0;entryDy=0;exitX=0.622;exitY=0.043;exitDx=0;exitDy=0;exitPerimeter=0;" edge="1" parent="1" source="7Stq9z6RVKlVhhMGPgVX-57" target="7Stq9z6RVKlVhhMGPgVX-61">
          <mxGeometry relative="1" as="geometry">
            <mxPoint x="1110" y="640" as="sourcePoint" />
            <mxPoint x="950" y="640" as="targetPoint" />
          </mxGeometry>
        </mxCell>
        <mxCell id="7Stq9z6RVKlVhhMGPgVX-67" value="" style="endArrow=none;html=1;rounded=0;entryX=0;entryY=1;entryDx=0;entryDy=0;exitX=0.75;exitY=0;exitDx=0;exitDy=0;" edge="1" parent="1" source="7Stq9z6RVKlVhhMGPgVX-57" target="7Stq9z6RVKlVhhMGPgVX-62">
          <mxGeometry relative="1" as="geometry">
            <mxPoint x="1110" y="640" as="sourcePoint" />
            <mxPoint x="950" y="640" as="targetPoint" />
          </mxGeometry>
        </mxCell>
        <mxCell id="7Stq9z6RVKlVhhMGPgVX-68" value="" style="endArrow=none;html=1;rounded=0;exitX=0.929;exitY=0.708;exitDx=0;exitDy=0;exitPerimeter=0;entryX=0.2;entryY=0;entryDx=0;entryDy=0;entryPerimeter=0;" edge="1" parent="1" source="7Stq9z6RVKlVhhMGPgVX-60" target="7Stq9z6RVKlVhhMGPgVX-57">
          <mxGeometry relative="1" as="geometry">
            <mxPoint x="950" y="640" as="sourcePoint" />
            <mxPoint x="1110" y="640" as="targetPoint" />
          </mxGeometry>
        </mxCell>
        <mxCell id="7Stq9z6RVKlVhhMGPgVX-69" value="" style="endArrow=none;html=1;rounded=0;exitX=1;exitY=0.5;exitDx=0;exitDy=0;" edge="1" parent="1" source="7Stq9z6RVKlVhhMGPgVX-58" target="7Stq9z6RVKlVhhMGPgVX-57">
          <mxGeometry relative="1" as="geometry">
            <mxPoint x="950" y="640" as="sourcePoint" />
            <mxPoint x="1110" y="640" as="targetPoint" />
          </mxGeometry>
        </mxCell>
        <mxCell id="7Stq9z6RVKlVhhMGPgVX-70" value="" style="endArrow=none;html=1;rounded=0;entryX=0.833;entryY=-0.018;entryDx=0;entryDy=0;entryPerimeter=0;exitX=0;exitY=1;exitDx=0;exitDy=0;" edge="1" parent="1" source="7Stq9z6RVKlVhhMGPgVX-63" target="7Stq9z6RVKlVhhMGPgVX-57">
          <mxGeometry relative="1" as="geometry">
            <mxPoint x="1160" y="619.05" as="sourcePoint" />
            <mxPoint x="1000" y="619.05" as="targetPoint" />
            <Array as="points">
              <mxPoint x="1100" y="650" />
            </Array>
          </mxGeometry>
        </mxCell>
        <mxCell id="7Stq9z6RVKlVhhMGPgVX-71" value="" style="endArrow=none;html=1;rounded=0;" edge="1" parent="1">
          <mxGeometry relative="1" as="geometry">
            <mxPoint x="1180" y="649.05" as="sourcePoint" />
            <mxPoint x="1100" y="670" as="targetPoint" />
          </mxGeometry>
        </mxCell>
        <mxCell id="7Stq9z6RVKlVhhMGPgVX-72" value="SPORT" style="whiteSpace=wrap;html=1;align=center;" vertex="1" parent="1">
          <mxGeometry x="1517.5" y="990" width="100" height="40" as="geometry" />
        </mxCell>
        <mxCell id="7Stq9z6RVKlVhhMGPgVX-73" value="sportId" style="ellipse;whiteSpace=wrap;html=1;align=center;fontStyle=4;" vertex="1" parent="1">
          <mxGeometry x="1427.5" y="920" width="100" height="40" as="geometry" />
        </mxCell>
        <mxCell id="7Stq9z6RVKlVhhMGPgVX-74" value="&amp;nbsp;sportName" style="ellipse;whiteSpace=wrap;html=1;align=center;" vertex="1" parent="1">
          <mxGeometry x="1517.5" y="860" width="100" height="40" as="geometry" />
        </mxCell>
        <mxCell id="7Stq9z6RVKlVhhMGPgVX-75" value="&amp;nbsp;description" style="ellipse;whiteSpace=wrap;html=1;align=center;" vertex="1" parent="1">
          <mxGeometry x="1617.5" y="920" width="100" height="40" as="geometry" />
        </mxCell>
        <mxCell id="7Stq9z6RVKlVhhMGPgVX-76" value="" style="endArrow=none;html=1;rounded=0;entryX=0.5;entryY=0;entryDx=0;entryDy=0;" edge="1" parent="1" target="7Stq9z6RVKlVhhMGPgVX-72">
          <mxGeometry relative="1" as="geometry">
            <mxPoint x="1567.5" y="900" as="sourcePoint" />
            <mxPoint x="1567.5" y="980" as="targetPoint" />
          </mxGeometry>
        </mxCell>
        <mxCell id="7Stq9z6RVKlVhhMGPgVX-77" value="" style="endArrow=none;html=1;rounded=0;exitX=0.75;exitY=0;exitDx=0;exitDy=0;" edge="1" parent="1" source="7Stq9z6RVKlVhhMGPgVX-72">
          <mxGeometry relative="1" as="geometry">
            <mxPoint x="1467.5" y="949.52" as="sourcePoint" />
            <mxPoint x="1627.5" y="949.52" as="targetPoint" />
          </mxGeometry>
        </mxCell>
        <mxCell id="7Stq9z6RVKlVhhMGPgVX-78" value="" style="endArrow=none;html=1;rounded=0;exitX=0.738;exitY=0.955;exitDx=0;exitDy=0;exitPerimeter=0;" edge="1" parent="1" source="7Stq9z6RVKlVhhMGPgVX-73">
          <mxGeometry relative="1" as="geometry">
            <mxPoint x="1497.5" y="950" as="sourcePoint" />
            <mxPoint x="1555.5" y="990" as="targetPoint" />
          </mxGeometry>
        </mxCell>
        <mxCell id="7Stq9z6RVKlVhhMGPgVX-79" value="" style="rhombus;whiteSpace=wrap;html=1;" vertex="1" parent="1">
          <mxGeometry x="1230" y="660" width="110" height="60" as="geometry" />
        </mxCell>
        <mxCell id="7Stq9z6RVKlVhhMGPgVX-80" value="HAS&amp;nbsp;" style="text;html=1;align=center;verticalAlign=middle;whiteSpace=wrap;rounded=0;" vertex="1" parent="1">
          <mxGeometry x="1255" y="675" width="60" height="30" as="geometry" />
        </mxCell>
        <mxCell id="7Stq9z6RVKlVhhMGPgVX-81" value="" style="endArrow=none;html=1;rounded=0;entryX=0;entryY=0.5;entryDx=0;entryDy=0;" edge="1" parent="1" target="7Stq9z6RVKlVhhMGPgVX-79">
          <mxGeometry width="50" height="50" relative="1" as="geometry">
            <mxPoint x="1110" y="689.41" as="sourcePoint" />
            <mxPoint x="1185" y="689.41" as="targetPoint" />
          </mxGeometry>
        </mxCell>
        <mxCell id="7Stq9z6RVKlVhhMGPgVX-82" value="" style="endArrow=none;html=1;rounded=0;entryX=0;entryY=0.75;entryDx=0;entryDy=0;exitX=1;exitY=0.5;exitDx=0;exitDy=0;" edge="1" parent="1" source="7Stq9z6RVKlVhhMGPgVX-79" target="7Stq9z6RVKlVhhMGPgVX-42">
          <mxGeometry width="50" height="50" relative="1" as="geometry">
            <mxPoint x="1340" y="695" as="sourcePoint" />
            <mxPoint x="1437.5" y="760" as="targetPoint" />
          </mxGeometry>
        </mxCell>
        <mxCell id="7Stq9z6RVKlVhhMGPgVX-83" value="" style="shape=table;startSize=0;container=1;collapsible=1;childLayout=tableLayout;fixedRows=1;rowLines=0;fontStyle=0;align=center;resizeLast=1;strokeColor=none;fillColor=none;collapsible=0;whiteSpace=wrap;html=1;" vertex="1" parent="1">
          <mxGeometry x="1390" y="670" width="180" height="30" as="geometry" />
        </mxCell>
        <mxCell id="7Stq9z6RVKlVhhMGPgVX-84" value="" style="shape=tableRow;horizontal=0;startSize=0;swimlaneHead=0;swimlaneBody=0;fillColor=none;collapsible=0;dropTarget=0;points=[[0,0.5],[1,0.5]];portConstraint=eastwest;top=0;left=0;right=0;bottom=0;" vertex="1" parent="7Stq9z6RVKlVhhMGPgVX-83">
          <mxGeometry width="180" height="30" as="geometry" />
        </mxCell>
        <mxCell id="7Stq9z6RVKlVhhMGPgVX-85" value="" style="shape=partialRectangle;connectable=0;fillColor=none;top=0;left=0;bottom=0;right=0;editable=1;overflow=hidden;" vertex="1" parent="7Stq9z6RVKlVhhMGPgVX-84">
          <mxGeometry width="30" height="30" as="geometry">
            <mxRectangle width="30" height="30" as="alternateBounds" />
          </mxGeometry>
        </mxCell>
        <mxCell id="7Stq9z6RVKlVhhMGPgVX-86" value="    M" style="shape=partialRectangle;connectable=0;fillColor=none;top=0;left=0;bottom=0;right=0;align=left;spacingLeft=6;overflow=hidden;" vertex="1" parent="7Stq9z6RVKlVhhMGPgVX-84">
          <mxGeometry x="30" width="150" height="30" as="geometry">
            <mxRectangle width="150" height="30" as="alternateBounds" />
          </mxGeometry>
        </mxCell>
        <mxCell id="7Stq9z6RVKlVhhMGPgVX-87" value="N" style="text;strokeColor=none;fillColor=none;spacingLeft=4;spacingRight=4;overflow=hidden;rotatable=0;points=[[0,0.5],[1,0.5]];portConstraint=eastwest;fontSize=12;whiteSpace=wrap;html=1;" vertex="1" parent="1">
          <mxGeometry x="1110" y="670" width="40" height="30" as="geometry" />
        </mxCell>
        <mxCell id="7Stq9z6RVKlVhhMGPgVX-99" value="&lt;br&gt;EVENT&lt;div&gt;&lt;br&gt;&lt;/div&gt;" style="whiteSpace=wrap;html=1;align=center;" vertex="1" parent="1">
          <mxGeometry x="1015" y="985" width="100" height="40" as="geometry" />
        </mxCell>
        <mxCell id="7Stq9z6RVKlVhhMGPgVX-100" value="eventId" style="ellipse;whiteSpace=wrap;html=1;align=center;fontStyle=4;" vertex="1" parent="1">
          <mxGeometry x="895" y="925" width="100" height="40" as="geometry" />
        </mxCell>
        <mxCell id="7Stq9z6RVKlVhhMGPgVX-101" value="eventName" style="ellipse;whiteSpace=wrap;html=1;align=center;" vertex="1" parent="1">
          <mxGeometry x="955" y="875" width="100" height="40" as="geometry" />
        </mxCell>
        <mxCell id="7Stq9z6RVKlVhhMGPgVX-104" value="" style="endArrow=none;html=1;rounded=0;entryX=0.25;entryY=0;entryDx=0;entryDy=0;" edge="1" parent="1" target="7Stq9z6RVKlVhhMGPgVX-99">
          <mxGeometry relative="1" as="geometry">
            <mxPoint x="1015" y="914.05" as="sourcePoint" />
            <mxPoint x="1175" y="914.05" as="targetPoint" />
          </mxGeometry>
        </mxCell>
        <mxCell id="7Stq9z6RVKlVhhMGPgVX-105" value="" style="endArrow=none;html=1;rounded=0;entryX=0.5;entryY=0;entryDx=0;entryDy=0;exitX=0;exitY=1;exitDx=0;exitDy=0;" edge="1" parent="1">
          <mxGeometry relative="1" as="geometry">
            <mxPoint x="1110.0022867974722" y="909.1850553132125" as="sourcePoint" />
            <mxPoint x="1075.25" y="985" as="targetPoint" />
          </mxGeometry>
        </mxCell>
        <mxCell id="7Stq9z6RVKlVhhMGPgVX-106" value="" style="endArrow=none;html=1;rounded=0;" edge="1" parent="1">
          <mxGeometry relative="1" as="geometry">
            <mxPoint x="955" y="965" as="sourcePoint" />
            <mxPoint x="1025" y="985" as="targetPoint" />
          </mxGeometry>
        </mxCell>
        <mxCell id="7Stq9z6RVKlVhhMGPgVX-107" value="" style="endArrow=none;html=1;rounded=0;exitX=0.262;exitY=0.907;exitDx=0;exitDy=0;exitPerimeter=0;" edge="1" parent="1" source="7Stq9z6RVKlVhhMGPgVX-102">
          <mxGeometry relative="1" as="geometry">
            <mxPoint x="1245" y="984.05" as="sourcePoint" />
            <mxPoint x="1085" y="984.05" as="targetPoint" />
          </mxGeometry>
        </mxCell>
        <mxCell id="7Stq9z6RVKlVhhMGPgVX-108" value="" style="rhombus;whiteSpace=wrap;html=1;" vertex="1" parent="1">
          <mxGeometry x="1255" y="970" width="95" height="80" as="geometry" />
        </mxCell>
        <mxCell id="7Stq9z6RVKlVhhMGPgVX-109" value="" style="endArrow=none;html=1;rounded=0;entryX=0;entryY=0.5;entryDx=0;entryDy=0;" edge="1" parent="1" target="7Stq9z6RVKlVhhMGPgVX-108">
          <mxGeometry relative="1" as="geometry">
            <mxPoint x="1115" y="1009.33" as="sourcePoint" />
            <mxPoint x="1275" y="1009.33" as="targetPoint" />
          </mxGeometry>
        </mxCell>
        <mxCell id="7Stq9z6RVKlVhhMGPgVX-110" value="" style="endArrow=none;html=1;rounded=0;entryX=0;entryY=0.5;entryDx=0;entryDy=0;" edge="1" parent="1" source="7Stq9z6RVKlVhhMGPgVX-111" target="7Stq9z6RVKlVhhMGPgVX-72">
          <mxGeometry relative="1" as="geometry">
            <mxPoint x="1337.5" y="1009.33" as="sourcePoint" />
            <mxPoint x="1497.5" y="1009.33" as="targetPoint" />
          </mxGeometry>
        </mxCell>
        <mxCell id="7Stq9z6RVKlVhhMGPgVX-111" value="Includes" style="text;strokeColor=none;fillColor=none;spacingLeft=4;spacingRight=4;overflow=hidden;rotatable=0;points=[[0,0.5],[1,0.5]];portConstraint=eastwest;fontSize=12;whiteSpace=wrap;html=1;" vertex="1" parent="1">
          <mxGeometry x="1275" y="995" width="75" height="30" as="geometry" />
        </mxCell>
        <mxCell id="7Stq9z6RVKlVhhMGPgVX-112" value="1" style="text;strokeColor=none;fillColor=none;spacingLeft=4;spacingRight=4;overflow=hidden;rotatable=0;points=[[0,0.5],[1,0.5]];portConstraint=eastwest;fontSize=12;whiteSpace=wrap;html=1;" vertex="1" parent="1">
          <mxGeometry x="1500" y="980" width="40" height="30" as="geometry" />
        </mxCell>
        <mxCell id="7Stq9z6RVKlVhhMGPgVX-113" value="    M" style="shape=partialRectangle;connectable=0;fillColor=none;top=0;left=0;bottom=0;right=0;align=left;spacingLeft=6;overflow=hidden;" vertex="1" parent="1">
          <mxGeometry x="1100" y="990" width="150" height="30" as="geometry">
            <mxRectangle width="150" height="30" as="alternateBounds" />
          </mxGeometry>
        </mxCell>
        <mxCell id="7Stq9z6RVKlVhhMGPgVX-116" value="" style="endArrow=none;html=1;rounded=0;" edge="1" parent="1" source="7Stq9z6RVKlVhhMGPgVX-118">
          <mxGeometry relative="1" as="geometry">
            <mxPoint x="1069.8600000000001" y="700" as="sourcePoint" />
            <mxPoint x="1070" y="730" as="targetPoint" />
            <Array as="points">
              <mxPoint x="1070" y="780" />
            </Array>
          </mxGeometry>
        </mxCell>
        <mxCell id="7Stq9z6RVKlVhhMGPgVX-57" value="USER" style="whiteSpace=wrap;html=1;align=center;" vertex="1" parent="1">
          <mxGeometry x="1010" y="660" width="100" height="40" as="geometry" />
        </mxCell>
        <mxCell id="7Stq9z6RVKlVhhMGPgVX-117" value="" style="endArrow=none;html=1;rounded=0;exitX=0.5;exitY=1;exitDx=0;exitDy=0;entryX=0.546;entryY=0.013;entryDx=0;entryDy=0;entryPerimeter=0;" edge="1" parent="1" source="7Stq9z6RVKlVhhMGPgVX-115" target="7Stq9z6RVKlVhhMGPgVX-99">
          <mxGeometry relative="1" as="geometry">
            <mxPoint x="1040" y="830" as="sourcePoint" />
            <mxPoint x="1070" y="980" as="targetPoint" />
          </mxGeometry>
        </mxCell>
        <mxCell id="7Stq9z6RVKlVhhMGPgVX-115" value="REGISTERS" style="shape=rhombus;perimeter=rhombusPerimeter;whiteSpace=wrap;html=1;align=center;" vertex="1" parent="1">
          <mxGeometry x="1010" y="790" width="120" height="60" as="geometry" />
        </mxCell>
        <mxCell id="7Stq9z6RVKlVhhMGPgVX-103" value="description" style="ellipse;whiteSpace=wrap;html=1;align=center;" vertex="1" parent="1">
          <mxGeometry x="1090" y="875" width="100" height="40" as="geometry" />
        </mxCell>
        <mxCell id="7Stq9z6RVKlVhhMGPgVX-102" value="eventDate" style="ellipse;whiteSpace=wrap;html=1;align=center;" vertex="1" parent="1">
          <mxGeometry x="1125" y="925" width="100" height="40" as="geometry" />
        </mxCell>
        <mxCell id="7Stq9z6RVKlVhhMGPgVX-119" value="N" style="text;strokeColor=none;fillColor=none;spacingLeft=4;spacingRight=4;overflow=hidden;rotatable=0;points=[[0,0.5],[1,0.5]];portConstraint=eastwest;fontSize=12;whiteSpace=wrap;html=1;" vertex="1" parent="1">
          <mxGeometry x="1045" y="845" width="40" height="30" as="geometry" />
        </mxCell>
        <mxCell id="7Stq9z6RVKlVhhMGPgVX-120" value="" style="endArrow=none;html=1;rounded=0;" edge="1" parent="1" target="7Stq9z6RVKlVhhMGPgVX-118">
          <mxGeometry relative="1" as="geometry">
            <mxPoint x="1069.8600000000001" y="700" as="sourcePoint" />
            <mxPoint x="1070" y="730" as="targetPoint" />
            <Array as="points" />
          </mxGeometry>
        </mxCell>
        <mxCell id="7Stq9z6RVKlVhhMGPgVX-118" value="M" style="text;strokeColor=none;fillColor=none;spacingLeft=4;spacingRight=4;overflow=hidden;rotatable=0;points=[[0,0.5],[1,0.5]];portConstraint=eastwest;fontSize=12;whiteSpace=wrap;html=1;" vertex="1" parent="1">
          <mxGeometry x="1050" y="760" width="40" height="30" as="geometry" />
        </mxCell>
        <mxCell id="7Stq9z6RVKlVhhMGPgVX-122" value="" style="endArrow=none;html=1;rounded=0;entryX=0.692;entryY=1;entryDx=0;entryDy=0;entryPerimeter=0;" edge="1" parent="1" target="7Stq9z6RVKlVhhMGPgVX-57">
          <mxGeometry width="50" height="50" relative="1" as="geometry">
            <mxPoint x="1079" y="795" as="sourcePoint" />
            <mxPoint x="1079.2" y="705" as="targetPoint" />
          </mxGeometry>
        </mxCell>
        <mxCell id="7Stq9z6RVKlVhhMGPgVX-121" value="" style="endArrow=none;html=1;rounded=0;exitX=0.867;exitY=0.197;exitDx=0;exitDy=0;exitPerimeter=0;" edge="1" parent="1" source="7Stq9z6RVKlVhhMGPgVX-111">
          <mxGeometry width="50" height="50" relative="1" as="geometry">
            <mxPoint x="1315" y="960" as="sourcePoint" />
            <mxPoint x="1515" y="1000.9090909090908" as="targetPoint" />
          </mxGeometry>
        </mxCell>
      </root>
    </mxGraphModel>
  </diagram>
</mxfile>
